# xmcd
#
# Track frame offsets:
#	150
#	12990
#	24682
#	39666
#	52256
#	64515
#	73035
#	86812
#	99134
#	112184
#	125384
#	134736
#	146961
#	159994
#	172128
#	187090
#	200406
#	210251
#	222026
#
# Disc length: 3226 seconds
#
# Revision: 1
# Processed by: cddbd v1.5.1PL0 Copyright (c) Steve Scherf et al.
# Submitted via: audiograbber 1.82.02
#
DISCID=240c9813
DTITLE=Oscar Klein - Picking the Blues CD2
DYEAR=1973
DGENRE=Blues
TTITLE0=Careless Love
TTITLE1=Honky Tonk Blues
TTITLE2=Medley: Skip to my Lou_Red River Valley_Greensleeves
TTITLE3=Sherman Shamble fingers Shuffle
TTITLE4=New Orleans Blues
TTITLE5=Broken Finger Drag
TTITLE6=When the Saints
TTITLE7=Just a closer walk
TTITLE8=Judo
TTITLE9=David´s Debut
TTITLE10=Band Guitar Blues
TTITLE11=I´m Sorry
TTITLE12=I´ll give you everything
TTITLE13=Rhythm Changes
TTITLE14=My little Girl
TTITLE15=Exactly like that
TTITLE16=Somebody´s Soul
TTITLE17=A Rose For Fats
TTITLE18=Stardust
EXTD=
EXTT0=
EXTT1=
EXTT2=
EXTT3=
EXTT4=
EXTT5=
EXTT6=
EXTT7=
EXTT8=
EXTT9=
EXTT10=
EXTT11=
EXTT12=
EXTT13=
EXTT14=
EXTT15=
EXTT16=
EXTT17=
EXTT18=
PLAYORDER=
